<mxfile host="app.diagrams.net" modified="2023-11-19T23:43:55.496Z" agent="Mozilla/5.0 (Macintosh; Intel Mac OS X 10_15_7) AppleWebKit/537.36 (KHTML, like Gecko) Chrome/119.0.0.0 Safari/537.36" etag="TwLJFu5ZrIJxfVhQI3p6" version="22.1.3" type="google">
  <diagram name="Page-1" id="FM3FOEkAFAL0T3ILi5uy">
    <mxGraphModel grid="1" page="1" gridSize="10" guides="1" tooltips="1" connect="1" arrows="1" fold="1" pageScale="1" pageWidth="850" pageHeight="1100" math="0" shadow="0">
      <root>
        <mxCell id="0" />
        <mxCell id="1" parent="0" />
        <mxCell id="R5ZbHgMVzEwffza_6oYx-3" value="" style="edgeStyle=orthogonalEdgeStyle;rounded=0;orthogonalLoop=1;jettySize=auto;html=1;" edge="1" parent="1" source="R5ZbHgMVzEwffza_6oYx-1">
          <mxGeometry relative="1" as="geometry">
            <mxPoint x="371" y="230" as="targetPoint" />
          </mxGeometry>
        </mxCell>
        <mxCell id="R5ZbHgMVzEwffza_6oYx-1" value="&lt;font style=&quot;font-size: 20px;&quot;&gt;Start&lt;/font&gt;" style="ellipse;whiteSpace=wrap;html=1;" vertex="1" parent="1">
          <mxGeometry x="280" y="70" width="200" height="80" as="geometry" />
        </mxCell>
        <mxCell id="R5ZbHgMVzEwffza_6oYx-4" value="&lt;font style=&quot;font-size: 18px;&quot;&gt;A&lt;br&gt;&lt;/font&gt;" style="shape=parallelogram;perimeter=parallelogramPerimeter;whiteSpace=wrap;html=1;fixedSize=1;" vertex="1" parent="1">
          <mxGeometry x="270" y="510" width="185" height="80" as="geometry" />
        </mxCell>
        <mxCell id="R5ZbHgMVzEwffza_6oYx-13" value="" style="edgeStyle=orthogonalEdgeStyle;rounded=0;orthogonalLoop=1;jettySize=auto;html=1;" edge="1" parent="1" source="R5ZbHgMVzEwffza_6oYx-6" target="R5ZbHgMVzEwffza_6oYx-10">
          <mxGeometry relative="1" as="geometry" />
        </mxCell>
        <mxCell id="R5ZbHgMVzEwffza_6oYx-6" value="&lt;font style=&quot;font-size: 18px;&quot;&gt;R&lt;/font&gt;" style="shape=parallelogram;perimeter=parallelogramPerimeter;whiteSpace=wrap;html=1;fixedSize=1;" vertex="1" parent="1">
          <mxGeometry x="280" y="230" width="185" height="80" as="geometry" />
        </mxCell>
        <mxCell id="R5ZbHgMVzEwffza_6oYx-14" value="" style="edgeStyle=orthogonalEdgeStyle;rounded=0;orthogonalLoop=1;jettySize=auto;html=1;" edge="1" parent="1" source="R5ZbHgMVzEwffza_6oYx-10" target="R5ZbHgMVzEwffza_6oYx-4">
          <mxGeometry relative="1" as="geometry" />
        </mxCell>
        <mxCell id="R5ZbHgMVzEwffza_6oYx-10" value="&lt;font style=&quot;font-size: 18px;&quot;&gt;A = 3.14 * (r * r)&lt;/font&gt;" style="rounded=0;whiteSpace=wrap;html=1;" vertex="1" parent="1">
          <mxGeometry x="280" y="380" width="180" height="70" as="geometry" />
        </mxCell>
      </root>
    </mxGraphModel>
  </diagram>
</mxfile>
